<svg data-v-1084b650="" xmlns="http://www.w3.org/2000/svg" viewBox="0 0 300 300"><!----> <!----> <rect data-v-1084b650="" fill="#ffffff" x="0" y="0" width="300px" height="300px" class="logo-background-square"></rect> <!----> <linearGradient data-v-1084b650="" gradientTransform="rotate(25)" id="9b0af4fb-df5e-9cff-9562-4a952fa06d39" x1="0%" y1="0%" x2="100%" y2="0%"><stop data-v-1084b650="" offset="0%" style="stop-color: rgb(0, 21, 214); stop-opacity: 1;"></stop> <stop data-v-1084b650="" offset="100%" style="stop-color: rgb(9, 137, 251); stop-opacity: 1;"></stop></linearGradient> <g data-v-1084b650="" id="d8caf017-0d76-a834-81b4-c37d3a1a6414" fill="url(#9b0af4fb-df5e-9cff-9562-4a952fa06d39)" stroke="none" transform="matrix(0.6999999999999997,0,0,0.6999999999999997,45.00000000000004,44.9989452362061)"><svg xmlns="http://www.w3.org/2000/svg" xmlns:xlink="http://www.w3.org/1999/xlink" version="1.1" x="0px" y="0px" viewBox="0 0 100 100" enable-background="new 0 0 100 100" xml:space="preserve"><g><path d="M77.921,47.2c0,0,4.063,21.633-20.426,30.089L50,63.737l-7.495,13.552C18.016,68.833,22.079,47.2,22.079,47.2l-8.398-5.099   c-0.54,2.547-0.827,5.189-0.827,7.899c0,20.742,16.631,37.558,37.146,37.558c20.516,0,37.146-16.815,37.146-37.558   c0-2.71-0.287-5.352-0.827-7.899L77.921,47.2z"></path><path d="M82.078,31.057C75.633,19.922,63.682,12.443,50,12.443c-13.681,0-25.633,7.479-32.079,18.614H0.5l13.903,8.189L50,60.213   l35.598-20.967L99.5,31.057H82.078z M50.079,49.975L25.773,35.573c1.438-2.762,3.42-5.239,5.821-7.315l13.875,8.51V21.908   c1.473-0.229,2.986-0.35,4.53-0.35c1.497,0,2.965,0.114,4.395,0.33v14.88l14.059-8.469c2.383,2.07,4.351,4.537,5.778,7.284   L50.079,49.975z"></path></g></svg></g></svg>